<svg xmlns="http://www.w3.org/2000/svg" width="58" height="58" viewBox="0 0 58 58" fill="none">
<path d="M56.75 30.875C56 28.5 53.375 27.25 51 28L45.25 29.875L41.5 18.625L47.125 16.75C49.625 16 50.875 13.375 50 11C49.25 8.625 46.75 7.375 44.25 8.125L38.625 10L36.625 4.125C35.875 1.75 33.25 0.5 30.875 1.25C28.5 2.125 27.25 4.625 28 7L30 12.875L18.375 16.75L16.375 10.875C15.625 8.5 13 7.25 10.625 8.125C8.25 8.875 7 11.375 7.75 13.75L9.75 19.625L4 21.5C1.625 22.375 0.375 24.875 1.125 27.25C1.75 29.125 3.5 30.25 5.375 30.375C6.25 30.5 6.875 30.125 12.625 28.25L16.375 39.5L10.75 41.375C8.375 42.125 7 44.75 7.875 47.125C8.5 49 10.25 50.125 12 50.25C12.875 50.375 13.5 50 19.25 48.125L21.25 54C21.875 56.125 24.25 57.625 27 56.875C29.375 56.125 30.625 53.5 29.875 51.125L27.875 45.25L39.5 41.375L41.5 47.25C42.25 49.375 44.625 50.875 47.25 50.125C49.625 49.25 50.875 46.75 50.125 44.375L48.125 38.5L53.875 36.625C56.25 35.875 57.5 33.25 56.75 30.875ZM25 36.75L21.125 25.5L32.875 21.625L36.625 32.875L25 36.75Z" fill="#3291FF"/>
</svg>