<svg width="200" height="48" viewBox="0 0 200 48" fill="none" xmlns="http://www.w3.org/2000/svg">
<rect width="200" height="48" rx="5" fill="#00BC0C"/>
<path d="M45.5508 19.7812C45.8555 19.7812 46.1602 19.7812 46.5156 19.832C45.6523 15.8711 41.3867 12.875 36.5117 12.875C31.0781 12.875 26.6602 16.582 26.6602 21.3047C26.6602 23.9961 28.1328 26.2305 30.5703 27.957L29.6055 30.9531L33.0586 29.2266C34.3281 29.4805 35.293 29.7344 36.5117 29.7344C36.8672 29.7344 37.1211 29.6836 37.4766 29.6836C37.2734 29.0234 37.1211 28.3125 37.1211 27.6016C37.1211 23.2852 40.8281 19.7812 45.5508 19.7812ZM40.2188 17.0898C40.9805 17.0898 41.4375 17.5977 41.4375 18.3594C41.4375 19.0703 40.9805 19.5781 40.2188 19.5781C39.457 19.5781 38.7461 19.0703 38.7461 18.3594C38.7461 17.5977 39.5078 17.0898 40.2188 17.0898ZM33.3125 19.5781C32.5508 19.5781 31.8398 19.0703 31.8398 18.3594C31.8398 17.5977 32.5508 17.0898 33.3125 17.0898C34.0742 17.0898 34.5312 17.5977 34.5312 18.3594C34.5312 19.0703 34.0742 19.5781 33.3125 19.5781ZM54.5898 27.5C54.5898 23.5391 50.6289 20.3398 46.1602 20.3398C41.4375 20.3398 37.7812 23.5391 37.7812 27.5C37.7812 31.4609 41.4883 34.6602 46.1602 34.6602C47.125 34.6602 48.1406 34.4062 49.1562 34.1523L51.8477 35.6758L51.0859 33.1875C53.1172 31.7148 54.5898 29.7344 54.5898 27.5ZM43.418 26.2305C42.9609 26.2305 42.4531 25.7734 42.4531 25.2656C42.4531 24.7578 42.9609 24.25 43.418 24.25C44.1797 24.25 44.6875 24.7578 44.6875 25.2656C44.6875 25.7734 44.1797 26.2305 43.418 26.2305ZM48.9023 26.2305C48.3945 26.2305 47.8867 25.7734 47.8867 25.2656C47.8867 24.7578 48.3945 24.25 48.9023 24.25C49.6133 24.25 50.1211 24.7578 50.1211 25.2656C50.1211 25.7734 49.6133 26.2305 48.9023 26.2305Z" fill="white"/>
<path d="M66.4307 24.9473C67.8955 23.9629 69.1611 22.3721 70.2275 20.1748L71.3262 20.8428C71.4141 20.8896 71.4492 20.9307 71.4316 20.9658C71.4316 20.9893 71.373 21.0273 71.2559 21.0801C71.0742 21.1973 70.875 21.376 70.6582 21.6162C70.5176 21.8564 70.2539 22.2754 69.8672 22.873V30.6514C69.8555 31.1318 69.8936 31.6123 69.9814 32.0928H68.7861C68.874 31.6592 68.9121 31.1787 68.9004 30.6514V24.1211C68.5254 24.6016 68.1035 25.0996 67.6348 25.6152C67.2539 25.3398 66.8525 25.1172 66.4307 24.9473ZM67.7666 20.5703C67.5029 20.3418 67.1777 20.1074 66.791 19.8672C68.1328 18.9062 69.2725 17.4971 70.21 15.6396L71.2734 16.3604C71.3203 16.3896 71.3438 16.4219 71.3438 16.457C71.3438 16.5039 71.291 16.5566 71.1855 16.6152C70.9336 16.7324 70.752 16.8818 70.6406 17.0635C69.9258 18.1182 68.9678 19.2871 67.7666 20.5703ZM70.0166 30.001C71.458 29.0166 72.1787 27.5078 72.1787 25.4746C72.1787 25.0293 72.1465 24.5723 72.082 24.1035C72.5156 24.1855 72.8994 24.2207 73.2334 24.209H75C75.2988 24.2207 75.6826 24.1855 76.1514 24.1035C76.0459 24.4492 75.9873 24.8389 75.9756 25.2725L75.8086 27.9531C76.5059 27.4492 77.0713 26.9746 77.5049 26.5293L77.6104 27.6807C76.8428 28.1963 76.0312 28.832 75.1758 29.5879L74.5342 28.6387C74.7979 28.457 74.9238 28.126 74.9121 27.6455L75.0176 25.0703H73.1279C73.21 27.3027 72.501 29.1455 71.001 30.5986C70.7607 30.3701 70.4326 30.1709 70.0166 30.001ZM72.0293 21.959H77.1094C77.9473 20.5527 78.5449 18.4229 78.9023 15.5693L80.2031 15.9648C80.3438 16.0117 80.4082 16.0527 80.3965 16.0879C80.4082 16.1113 80.3379 16.1729 80.1855 16.2725C80.0156 16.3779 79.8896 16.5977 79.8076 16.9316C79.6025 17.7754 79.3564 18.6777 79.0693 19.6387H82.1455C82.4443 19.6504 82.793 19.6123 83.1914 19.5244V20.6406C82.8281 20.5586 82.4736 20.5234 82.1279 20.5352H81.8379C81.791 23.6582 81.3545 26.0752 80.5283 27.7861C81.3662 29.2627 82.4268 30.3145 83.71 30.9414C83.1592 31.1348 82.7285 31.4453 82.418 31.873C81.3516 30.9004 80.4932 29.8633 79.8428 28.7617C78.665 30.0215 77.0801 31.1318 75.0879 32.0928C74.8594 31.6123 74.5723 31.2578 74.2266 31.0293C76.377 30.5137 78.0615 29.4473 79.2803 27.8301C78.6592 26.4121 78.1875 24.748 77.8652 22.8379C77.7188 23.1016 77.5869 23.3359 77.4697 23.541C77.0947 23.3711 76.7109 23.251 76.3184 23.1807C76.4238 23.0518 76.5117 22.9316 76.582 22.8203H72.082C71.7598 22.8086 71.3818 22.8438 70.9482 22.9258V21.8535C71.3701 21.9355 71.7305 21.9707 72.0293 21.959ZM79.0342 22.4248C79.0166 22.5947 79.0078 22.7412 79.0078 22.8643C79.0078 23.8604 79.3271 25.1113 79.9658 26.6172C80.458 25.3457 80.7334 23.3184 80.792 20.5352H78.8145C78.6211 21.0625 78.3457 21.7422 77.9883 22.5742L79.0342 22.4248ZM72.7676 18.4082V19.9023H74.0684V17.1514C74.0801 16.7295 74.042 16.2139 73.9541 15.6045L75.3076 15.7803C75.46 15.8096 75.542 15.8594 75.5537 15.9297C75.542 16 75.46 16.0967 75.3076 16.2197C75.0908 16.3838 74.9766 16.7061 74.9648 17.1865V19.9023H76.3711V18.1621C76.3711 17.6699 76.3389 17.166 76.2744 16.6504L77.6279 16.8789C77.7334 16.8906 77.7861 16.917 77.7861 16.958C77.7979 16.9932 77.751 17.0576 77.6455 17.1514C77.3701 17.3682 77.2441 17.7344 77.2676 18.25V19.709C77.2559 20.0195 77.291 20.4092 77.373 20.8779C76.8926 20.7959 76.5088 20.7607 76.2217 20.7725H73.0576C72.6592 20.7607 72.2256 20.7959 71.7568 20.8779C71.8447 20.3975 71.8828 19.9844 71.8711 19.6387V18.3027C71.8828 17.7402 71.8447 17.1895 71.7568 16.6504L73.0928 16.8262C73.1982 16.8496 73.2568 16.9053 73.2686 16.9932C73.2568 17.0752 73.1982 17.1455 73.0928 17.2041C72.876 17.3154 72.7676 17.7168 72.7676 18.4082ZM84.3604 23.0752C86.2705 21.5869 87.7939 19.0498 88.9307 15.4639L90.2842 16.0703C90.3779 16.1172 90.4189 16.1641 90.4072 16.2109C90.3955 16.252 90.3311 16.3076 90.2139 16.3779C89.9209 16.5596 89.6543 16.9316 89.4141 17.4941C89.0566 18.332 88.752 18.9619 88.5 19.3838V30.5635C88.5117 30.9326 88.5469 31.4951 88.6055 32.251H87.3838C87.4424 31.5713 87.4775 31.0088 87.4893 30.5635V21.2734C86.9502 22.1406 86.3818 22.9932 85.7842 23.8311C85.4561 23.5791 84.9814 23.3271 84.3604 23.0752ZM89.7393 19.3662V18.25C90.2783 18.3086 90.7354 18.3438 91.1104 18.3555H96.1816C95.3672 17.6465 94.5117 16.9404 93.6152 16.2373L94.459 15.3496C95.3965 16.0703 96.29 16.7676 97.1396 17.4414L96.3135 18.3555H99.75C100.084 18.3555 100.605 18.3203 101.314 18.25V19.3662C100.605 19.3076 100.084 19.2725 99.75 19.2607H91.1104C90.7764 19.2607 90.3193 19.2959 89.7393 19.3662ZM92.3145 32.251H91.1104C91.1689 31.6533 91.2041 31.1377 91.2158 30.7041V27.9355C91.2041 27.5957 91.1689 27.0684 91.1104 26.3535C91.9717 26.4238 92.5547 26.459 92.8594 26.459H97.9307C98.2822 26.459 98.8887 26.4238 99.75 26.3535C99.6914 26.916 99.6562 27.4492 99.6445 27.9531V30.5986C99.6445 30.8506 99.6797 31.3604 99.75 32.1279H98.5283C98.5986 31.6357 98.6338 31.252 98.6338 30.9766H92.2266C92.2266 31.2285 92.2559 31.6533 92.3145 32.251ZM92.2266 27.3555V30.1152H98.6338V27.3555H92.2266ZM91.251 22.0996V21.0186C91.8779 21.0947 92.3818 21.1328 92.7627 21.1328H98.3613C98.6777 21.1211 99.1758 21.083 99.8555 21.0186V22.0996C99.2578 22.041 98.7598 22.0059 98.3613 21.9941H92.7627C92.3701 22.0059 91.8662 22.041 91.251 22.0996ZM91.251 24.7451V23.6641C91.8662 23.7285 92.3701 23.7666 92.7627 23.7783H98.3613C98.7246 23.7666 99.2227 23.7285 99.8555 23.6641V24.7451C99.2227 24.6865 98.7246 24.6514 98.3613 24.6396H92.7627C92.4287 24.6514 91.9248 24.6865 91.251 24.7451ZM108.337 30.9238C110.353 30.6953 112.008 29.9512 113.303 28.6914C112.26 27.7773 111.492 26.5879 111 25.123C110.977 25.1348 110.909 25.1465 110.798 25.1582C110.599 25.1875 110.391 25.2139 110.174 25.2373V24.0244C110.643 24.0889 111.038 24.1211 111.36 24.1211H116.098C116.525 24.1211 116.95 24.0889 117.372 24.0244C116.722 25.7764 115.887 27.3145 114.867 28.6387C116.203 29.7051 117.735 30.4111 119.464 30.7568C119.03 31.0967 118.746 31.4863 118.611 31.9258C116.959 31.2344 115.447 30.3789 114.076 29.3594C112.758 30.5078 111.167 31.4541 109.304 32.1982C109.017 31.6826 108.694 31.2578 108.337 30.9238ZM115.843 25.0176H111.932C112.4 26.2656 113.104 27.2559 114.041 27.9883C114.738 27.2324 115.339 26.2422 115.843 25.0176ZM116.792 20.0166C116.616 20.2803 116.364 20.6406 116.036 21.0977C116.013 21.1328 115.995 21.1562 115.983 21.168H117.17C117.773 21.168 118.333 21.1299 118.849 21.0537C118.802 21.4404 118.767 21.8975 118.743 22.4248V22.6094C118.743 22.8965 118.772 23.3154 118.831 23.8662H117.645C117.691 23.3975 117.721 22.9785 117.732 22.6094V22.0645H109.849V22.5742C109.849 22.873 109.884 23.3213 109.954 23.9189H108.732C108.791 23.2979 108.826 22.8496 108.838 22.5742V22.4248C108.826 22.1494 108.791 21.6924 108.732 21.0537C109.512 21.1299 110.057 21.168 110.367 21.168H114.92C115.787 19.832 116.405 18.7451 116.774 17.9072L117.952 18.5752C118.104 18.6572 118.175 18.7217 118.163 18.7686C118.163 18.8096 118.078 18.8652 117.908 18.9355C117.551 19.0176 117.179 19.3779 116.792 20.0166ZM117.574 15.2793L118.383 16.4307C118.418 16.4893 118.436 16.5391 118.436 16.5801C118.436 16.6035 118.43 16.6211 118.418 16.6328C118.395 16.6504 118.368 16.6592 118.339 16.6592C118.298 16.6592 118.239 16.6445 118.163 16.6152C118.063 16.5684 117.935 16.5449 117.776 16.5449C117.554 16.5449 117.27 16.5918 116.924 16.6855C114.738 17.1777 112.26 17.5264 109.488 17.7314C109.441 17.4268 109.304 17.0283 109.075 16.5361C109.544 16.5596 109.975 16.5713 110.367 16.5713C113.021 16.5713 115.424 16.1406 117.574 15.2793ZM112.169 20.2451L111.308 20.8076C110.851 20.0283 110.382 19.3545 109.901 18.7861L110.692 18.3027C111.003 18.7012 111.375 19.1875 111.809 19.7617C111.979 20.002 112.099 20.1631 112.169 20.2451ZM102.976 20.21V19.0938C103.573 19.1523 104.01 19.1904 104.285 19.208H105.656V17.0986C105.645 16.46 105.606 15.9268 105.542 15.499L106.966 15.71C107.101 15.7334 107.174 15.7715 107.186 15.8242C107.186 15.8828 107.124 15.9531 107.001 16.0352C106.749 16.2285 106.623 16.6123 106.623 17.1865V19.208H107.273C107.584 19.208 108.088 19.1699 108.785 19.0938V20.21C108.123 20.1514 107.619 20.1162 107.273 20.1045H106.623V23.9365C106.828 23.8545 107.238 23.6699 107.854 23.3828C108.082 23.2715 108.255 23.1865 108.372 23.1279C108.302 23.5264 108.249 23.9512 108.214 24.4023L108.064 24.4639H108.082C107.373 24.751 106.887 24.9414 106.623 25.0352V30.2207C106.646 30.8945 106.515 31.3076 106.228 31.46C105.987 31.6533 105.281 31.791 104.109 31.873C104.057 31.4043 103.904 30.9619 103.652 30.5459C104.186 30.6221 104.593 30.6602 104.874 30.6602C105.085 30.6602 105.237 30.6396 105.331 30.5986C105.571 30.5283 105.68 30.2705 105.656 29.8252V25.4482C104.936 25.7705 104.156 26.166 103.318 26.6348L102.738 25.4131C103.641 25.1729 104.613 24.8125 105.656 24.332V20.1045H104.285C104.033 20.1045 103.597 20.1396 102.976 20.21ZM114.779 20.0342L113.769 20.4648C113.423 19.6094 113.057 18.8359 112.67 18.1445L113.646 17.7139C113.956 18.2881 114.334 19.0615 114.779 20.0342ZM137.297 30.5986C136.863 30.8154 136.462 31.1699 136.093 31.6621C134.194 30.0273 132.809 28.5566 131.936 27.25C130.629 28.8555 128.997 30.2529 127.04 31.4424C126.776 30.9736 126.387 30.6514 125.871 30.4756C128.039 29.667 129.844 28.2607 131.285 26.2568C129.92 23.8018 129.015 21.0859 128.569 18.1094C128.194 18.0977 127.781 18.1328 127.33 18.2148V17.0635C127.723 17.1338 128.206 17.1689 128.78 17.1689H134.528C134.997 17.1689 135.439 17.1338 135.855 17.0635C135.199 20.9365 134.133 24.0186 132.656 26.3096C133.84 28.208 135.387 29.6377 137.297 30.5986ZM134.432 18.1094H129.615C129.879 20.4941 130.676 22.8818 132.006 25.2725C133.336 22.9404 134.145 20.5527 134.432 18.1094ZM123.946 20.4824H122.487C122.077 20.4824 121.591 20.5176 121.028 20.5879V19.4365C121.567 19.5068 122.054 19.542 122.487 19.542H124.017V16.7559C124.017 16.3691 123.979 15.9121 123.902 15.3848L125.238 15.5693C125.385 15.5811 125.464 15.6045 125.476 15.6396C125.487 15.6748 125.432 15.7275 125.309 15.7979C125.092 15.9326 124.983 16.3311 124.983 16.9932V19.542H125.651C126.073 19.542 126.56 19.5068 127.11 19.4365V20.5879C126.513 20.5176 126.032 20.4824 125.669 20.4824H124.983V21.458C125.587 21.9971 126.296 22.709 127.11 23.5938C127.339 23.8223 127.512 24.0039 127.629 24.1387L126.768 24.9473C126.299 24.25 125.704 23.5352 124.983 22.8027V30.4932C124.983 31.0674 125.021 31.6064 125.098 32.1104H123.902C123.979 31.46 124.017 30.9326 124.017 30.5283V22.9873C123.425 24.3525 122.637 25.7324 121.652 27.127C121.365 26.834 120.999 26.623 120.554 26.4941C121.995 25.0645 123.126 23.0605 123.946 20.4824ZM142.5 20.8779C142.043 20.251 141.521 19.6445 140.936 19.0586L141.691 18.5049C142.195 19.0322 142.699 19.6064 143.203 20.2275C144.018 19.4717 144.706 18.6074 145.269 17.6348H142.342C141.967 17.6348 141.527 17.6729 141.023 17.749V16.6328C141.598 16.7031 142.049 16.7383 142.377 16.7383H145.664C146.062 16.7383 146.502 16.7031 146.982 16.6328C146.133 18.4785 144.958 20.0371 143.458 21.3086C143.815 21.3789 144.12 21.4141 144.372 21.4141H149.786C150.026 21.4141 150.357 21.3789 150.779 21.3086C149.461 20.2891 148.356 18.6396 147.466 16.3604L148.354 16.0527C148.541 16.6152 148.767 17.125 149.03 17.582C149.991 16.9375 150.756 16.2959 151.324 15.6572L152.133 16.6152C152.186 16.6797 152.212 16.7354 152.212 16.7822C152.212 16.7998 152.209 16.8145 152.203 16.8262C152.18 16.873 152.106 16.8965 151.983 16.8965C151.696 16.8965 151.45 16.958 151.245 17.0811C151.14 17.1514 150.961 17.2598 150.709 17.4062C150.17 17.7285 149.719 17.998 149.355 18.2148C149.607 18.625 149.877 18.9854 150.164 19.2959C151.4 18.54 152.291 17.8545 152.836 17.2393L153.715 18.1973C153.82 18.3027 153.861 18.3936 153.838 18.4697C153.803 18.5283 153.721 18.5518 153.592 18.54C153.539 18.5342 153.478 18.5312 153.407 18.5312C153.161 18.5312 152.944 18.5869 152.757 18.6982C152.276 18.9736 151.6 19.3691 150.727 19.8848C152.045 21.0742 153.636 21.8418 155.499 22.1875C155.065 22.5508 154.787 22.9434 154.664 23.3652C153.229 22.8848 152.03 22.2607 151.069 21.4932V22.4248C150.53 22.3545 150.103 22.3193 149.786 22.3193H144.372C144.003 22.3193 143.546 22.3545 143.001 22.4248V21.6689C142.069 22.4834 140.974 23.2686 139.714 24.0244C139.485 23.667 139.137 23.333 138.668 23.0225C139.975 22.624 141.252 21.9092 142.5 20.8779ZM143.704 28.7266L144.627 28.1289C145.248 29.0312 145.781 29.8311 146.227 30.5283H148.099C148.731 29.6143 149.206 28.7207 149.522 27.8477L150.709 28.3838C150.85 28.4541 150.92 28.5215 150.92 28.5859C150.92 28.6445 150.85 28.6973 150.709 28.7441C150.422 28.8379 150.182 29.0371 149.988 29.3418C149.725 29.7695 149.467 30.165 149.215 30.5283H153.117C153.504 30.5283 153.979 30.4902 154.541 30.4141V31.5303C154.002 31.46 153.527 31.4248 153.117 31.4248H141.331C140.921 31.4248 140.417 31.46 139.819 31.5303V30.4141C140.44 30.4902 140.944 30.5283 141.331 30.5283H144.952C144.589 29.9248 144.173 29.3242 143.704 28.7266ZM142.324 27.8477C142.395 27.291 142.43 26.834 142.43 26.4766V25.29C142.43 24.9385 142.395 24.4463 142.324 23.8135C142.863 23.8838 143.312 23.9189 143.669 23.9189H150.507C150.964 23.9189 151.45 23.8838 151.966 23.8135C151.896 24.4229 151.86 24.9092 151.86 25.2725V26.459C151.86 26.8516 151.896 27.3145 151.966 27.8477C151.38 27.7598 150.905 27.7217 150.542 27.7334H143.669C143.312 27.7334 142.863 27.7715 142.324 27.8477ZM150.85 26.8369V24.8242H143.432V26.8369H150.85ZM167.953 21.3438L168.243 19.5596H162.135C161.766 19.5771 161.3 19.6152 160.737 19.6738V18.5576C161.37 18.6279 161.836 18.6631 162.135 18.6631H168.419L168.674 16.9932H161.616C161.317 17.0049 160.854 17.04 160.228 17.0986V15.9824C160.878 16.0527 161.341 16.0879 161.616 16.0879H168.542C168.94 16.0879 169.427 16.0586 170.001 16C169.884 16.3691 169.764 16.8496 169.641 17.4414L168.981 21.3438H171.354C171.776 21.332 172.251 21.2969 172.778 21.2383V22.3545C172.198 22.2959 171.724 22.2607 171.354 22.249H165.501V23.5059C165.958 24.3848 166.468 25.1934 167.03 25.9316C168.413 24.8887 169.471 23.9365 170.203 23.0752L171.284 24.209C171.372 24.3086 171.416 24.376 171.416 24.4111C171.416 24.4229 171.413 24.4316 171.407 24.4375C171.384 24.4902 171.27 24.5107 171.064 24.499C170.766 24.458 170.423 24.584 170.036 24.877C169.884 24.9824 169.658 25.1494 169.359 25.3779C168.65 25.8818 168.062 26.3008 167.593 26.6348C168.888 28.1992 170.681 29.2861 172.972 29.8955C172.491 30.1592 172.131 30.5371 171.891 31.0293C168.902 29.5996 166.772 27.7041 165.501 25.3428V30.3613C165.513 30.9531 165.325 31.3574 164.938 31.5742C164.558 31.7969 163.811 31.9404 162.697 32.0049C162.686 31.4775 162.53 31.0088 162.231 30.5986C162.712 30.71 163.11 30.7656 163.427 30.7656C164.165 30.7656 164.522 30.4814 164.499 29.9131V26.292C161.651 28.1904 159.551 29.6904 158.197 30.792L157.292 29.7197C158.183 29.5029 160.585 27.9766 164.499 25.1406V22.249H158.558C158.194 22.249 157.731 22.2842 157.169 22.3545V21.2383C157.696 21.2969 158.159 21.332 158.558 21.3438H167.953ZM159.296 23.8311L160.122 23.1455C160.772 23.8545 161.487 24.7012 162.267 25.6855L161.361 26.3887C160.717 25.4746 160.028 24.6221 159.296 23.8311Z" fill="white"/>
</svg>
